# xmcd
#
# Track frame offsets:
# 150
# 16930
# 32587
# 44122
# 64030
# 80832
# 90425
# 110615
# 126260
# 137730
# 145710
#
# Disc length: 2185 seconds
#
# Revision: 0
# Processed by: cddbd v1.4PL0 Copyright (c) Steve Scherf et al.
# Submitted via: Audion 3.0.2 (http://www.panic.com/audion/)
#
DISCID=9608870b
DTITLE=Sine Bach Ruttel - Lovin´ only me
DYEAR=1900
DGENRE=
TTITLE0=Lovin Only Me
TTITLE1=Wayfaring Stranger
TTITLE2=Little Maggie
TTITLE3=My Man
TTITLE4=Two Brothers
TTITLE5=Ol´Joe Clark
TTITLE6=Ain´t Gonna Work Tomorrow
TTITLE7=Riders in The Sky
TTITLE8=Hometown Blues
TTITLE9=Foggy Mountain Breakdown
TTITLE10=Norwegian Wood
EXTD=
EXTT0=
EXTT1=
EXTT2=
EXTT3=
EXTT4=
EXTT5=
EXTT6=
EXTT7=
EXTT8=
EXTT9=
EXTT10=
PLAYORDER=
